<svg xmlns="http://www.w3.org/2000/svg" width="150.517" height="169.888" viewBox="0 0 150.517 169.888">
  <g id="Group_96" data-name="Group 96" transform="translate(0 0)">
    <path id="Path_19" data-name="Path 19" d="M427.848,222.492c.044.107.084.214.124.322.027.074.047.151.074.228.248.68.526,1.34.791,2.01.1.265.2.536.312.8.057.137.12.268.174.4.158.379.322.751.486,1.122.422,1,.878,1.97,1.337,2.941L541.509,120.231c-.167-.174-.328-.355-.5-.529-.365-.372-.737-.74-1.109-1.109q-1.794-1.779-3.688-3.44c-.214-.188-.425-.382-.643-.566a85.921,85.921,0,0,0-7.547-5.819h0a86.822,86.822,0,0,0-33.975-13.936c-3.95,14.861-21.042,29.667-37.4,46.367a86.527,86.527,0,0,1,4.639-20.164,86.457,86.457,0,0,0-37.212,87.555A59.456,59.456,0,0,0,427.848,222.492Z" transform="translate(-422.646 -94.831)" fill="#e1545e"/>
    <g id="Group_6" data-name="Group 6" transform="translate(10.446 26.006)">
      <path id="Path_20" data-name="Path 20" d="M446.683,155.436a3.341,3.341,0,0,0,3.092,2.074h64.149a3.338,3.338,0,0,0,0-6.677h-8.09l7.44-7.44a3.338,3.338,0,0,0-4.72-4.72l-11.943,11.943a2.241,2.241,0,0,0-.177.218H457.942l27.1-26.6a3.276,3.276,0,0,0,.875.141l16.887.194h.04a3.338,3.338,0,0,0,.037-6.677l-11.246-.127,6.053-5.946a3.338,3.338,0,1,0-4.677-4.764l-45.576,44.736A3.343,3.343,0,0,0,446.683,155.436Z" transform="translate(-377.19 -94.366)" fill="#00a9ef"/>
      <path id="Path_21" data-name="Path 21" d="M513.638,122.959l-63.864-.6h-.034a3.336,3.336,0,0,0-2.358,5.7l45.362,45.362a3.338,3.338,0,1,0,4.72-4.72l-4.6-4.6,9.494.107h.037a3.338,3.338,0,0,0,.037-6.676l-16.321-.188-28.237-28.234,39.061.365,11.071,11.072a3.338,3.338,0,1,0,4.721-4.72l-6.265-6.265,7.109.067h.033a3.338,3.338,0,0,0,.03-6.676Z" transform="translate(-377.263 -56.137)" fill="#00a9ef"/>
      <path id="Path_22" data-name="Path 22" d="M450.044,125.4a3.337,3.337,0,0,0-5.722,2.338V191.89a3.338,3.338,0,1,0,6.676,0v-7.172l7.2,7.2a3.339,3.339,0,0,0,4.72-4.723L451,175.277V135.908l27.45,27.966a4,4,0,0,0-.05.456l-.181,16.016a3.338,3.338,0,0,0,3.3,3.377h.04a3.338,3.338,0,0,0,3.337-3.3l.111-9.869,5.011,5.105a3.338,3.338,0,1,0,4.763-4.677Z" transform="translate(-382.155 -51.348)" fill="#00a9ef"/>
      <path id="Path_23" data-name="Path 23" d="M477.859,124.631a3.334,3.334,0,0,0-3.651.717L428.846,170.71a3.338,3.338,0,0,0,4.72,4.72L438.6,170.4l-.114,10.154a3.338,3.338,0,0,0,3.3,3.377h.04a3.338,3.338,0,0,0,3.336-3.3l.191-16.887a.79.79,0,0,0-.01-.09l27.8-27.8-.372,39.737-11.065,11.068a3.338,3.338,0,1,0,4.72,4.72l6.258-6.258-.06,6.429a3.338,3.338,0,0,0,3.306,3.37h.034a3.337,3.337,0,0,0,3.336-3.306l.6-63.864A3.338,3.338,0,0,0,477.859,124.631Z" transform="translate(-420.821 -51.42)" fill="#00a9ef"/>
      <g id="Group_5" data-name="Group 5" transform="translate(62.418)">
        <path id="Path_24" data-name="Path 24" d="M495.454,104.8a3.338,3.338,0,0,0-4.72,0l-3.641,3.641-16.676,16.68h0l-4.546,4.543h0l-14.723,14.723,0-.2-6.741,6.65-.013,1.655a3.338,3.338,0,0,0,5.7,2.392l32.957-32.961.06.007h.037a3.338,3.338,0,0,0,3.336-3.3l0-.141,8.964-8.968A3.332,3.332,0,0,0,495.454,104.8Z" transform="translate(-444.397 -99.696)" fill="#00a9ef"/>
        <path id="Path_25" data-name="Path 25" d="M456.354,102.594a3.369,3.369,0,0,0-1.166,1.069Z" transform="translate(-419.038 -102.594)" fill="#00a9ef"/>
      </g>
      <path id="Path_26" data-name="Path 26" d="M477.774,124.365a3.344,3.344,0,0,0-3.092-2.077h-1.521l-6.767,6.677h.121L438.2,156.759h0l-6.727,6.6h0l-4.71,4.623a3.339,3.339,0,0,0,4.677,4.767l45.58-44.739A3.337,3.337,0,0,0,477.774,124.365Z" transform="translate(-425.765 -56.313)" fill="#00a9ef"/>
    </g>
  </g>
</svg>
