<?xml version="1.0" encoding="iso-8859-1"?>
<!-- Generator: Adobe Illustrator 19.0.0, SVG Export Plug-In . SVG Version: 6.00 Build 0)  -->
<svg version="1.1" id="Capa_1" xmlns="http://www.w3.org/2000/svg" xmlns:xlink="http://www.w3.org/1999/xlink" x="0px" y="0px"
	 viewBox="0 0 512 512" style="enable-background:new 0 0 512 512;" xml:space="preserve">
<g>
	<g>
		<path style="fill:#00a9ef;" d="M227,30h-17.58C203.228,12.542,186.555,0,167,0h-30c-19.555,0-36.228,12.542-42.42,30H15C6.716,30,0,36.716,0,45v150
			c0,8.284,6.716,15,15,15h79.58c6.192,17.458,22.865,30,42.42,30h30c19.186,0,35.596-12.073,42.057-29.018
			C244.698,216.769,272,247.75,272,285v41.591c-3.826,3.557-8.813,5.531-14.25,5.531c-7.162,0-13.547-3.417-17.519-9.376
			c-9.491-14.236-25.372-22.735-42.481-22.735s-32.99,8.499-42.48,22.735c-3.973,5.958-10.358,9.376-17.52,9.376
			c-7.161,0-13.546-3.417-17.519-9.376c-9.491-14.236-25.745-22.735-43.481-22.735s-33.99,8.499-43.48,22.734
			c-4.072,6.106-10.613,9.516-17.962,9.372c-4.013-0.067-7.925,1.461-10.805,4.282C1.623,339.221,0,343.083,0,347.114V497
			c0,8.284,6.716,15,15,15h482c8.284,0,15-6.716,15-15c0-25.094,0-155.938,0-182C512,157.491,384.534,30,227,30z M92,180H30V60h62
			V180z M182,195c0,8.271-6.729,15-15,15h-30c-8.271,0-15-6.729-15-15V45c0-8.271,6.729-15,15-15h30c8.271,0,15,6.729,15,15V195z
			 M211.999,181.068V60h15c140.607,0,255,114.392,255,255v10.042c-0.632-0.719-1.226-1.481-1.77-2.296
			c-6.854-10.281-17.048-17.548-28.624-20.804c-2.728-46.317-19.879-91.151-49.003-127.473c-5.182-6.463-14.621-7.5-21.086-2.319
			c-6.463,5.183-7.501,14.623-2.318,21.086c25.405,31.684,39.943,69.282,42.42,109.394c-10.633,3.534-19.948,10.512-26.35,20.115
			c-3.973,5.958-10.358,9.376-17.52,9.376s-13.547-3.417-17.52-9.376c-9.49-14.236-25.371-22.735-42.48-22.735
			c-5.429,0-10.732,0.862-15.749,2.485V285C301.999,232.195,262.816,188.369,211.999,181.068z M30,482v-30.909
			c11.406-3.296,21.426-10.498,28.23-20.705c3.914-5.871,10.837-9.375,18.519-9.375s14.605,3.505,18.519,9.375
			c9.491,14.236,25.371,22.735,42.48,22.735c17.108,0,32.991-8.5,42.481-22.735c3.972-5.958,10.357-9.375,17.519-9.375
			c7.162,0,13.547,3.417,17.519,9.375c9.491,14.236,25.371,22.735,42.481,22.735c17.109,0,32.99-8.499,42.48-22.735
			c3.973-5.958,10.358-9.375,17.52-9.375s13.547,3.417,17.52,9.375c9.49,14.236,25.37,22.735,42.48,22.735
			c17.108,0,32.99-8.5,42.48-22.735c3.973-5.958,10.358-9.375,17.52-9.375s13.547,3.417,17.52,9.376
			c6.453,9.679,15.934,16.727,26.731,20.232V482H30z M437.749,391.011c-17.109,0-32.99,8.499-42.48,22.735
			c-3.973,5.958-10.358,9.376-17.52,9.376s-13.547-3.417-17.52-9.376c-9.49-14.236-25.371-22.735-42.48-22.735
			s-32.99,8.499-42.481,22.735c-3.972,5.958-10.357,9.376-17.519,9.376c-7.162,0-13.547-3.417-17.519-9.376
			c-9.491-14.236-25.372-22.735-42.481-22.735s-32.99,8.499-42.48,22.735c-3.973,5.958-10.358,9.376-17.52,9.376
			c-7.161,0-13.546-3.417-17.519-9.376c-9.491-14.236-25.745-22.735-43.481-22.735c-17.736,0-33.99,8.499-43.48,22.734
			c-0.959,1.438-2.058,2.719-3.269,3.847v-57.477c11.409-3.294,21.424-10.52,28.23-20.729c3.914-5.871,10.837-9.375,18.519-9.375
			c7.682,0,14.605,3.505,18.519,9.375c9.491,14.236,25.371,22.735,42.48,22.735c17.108,0,32.991-8.5,42.481-22.735
			c3.972-5.958,10.357-9.375,17.519-9.375s13.547,3.417,17.519,9.375c9.491,14.236,25.371,22.735,42.481,22.735
			c17.315,0,33.135-8.718,42.48-22.735c3.973-5.958,10.358-9.375,17.52-9.375s13.547,3.417,17.52,9.375
			c9.49,14.236,25.37,22.735,42.48,22.735c17.108,0,32.99-8.5,42.48-22.735c3.973-5.958,10.358-9.375,17.52-9.375
			s13.547,3.417,17.52,9.376c6.454,9.68,15.932,16.74,26.731,20.245C482,373.221,482,403.156,482,416.043
			C479.522,413.225,467.029,391.011,437.749,391.011z"/>
	</g>
</g>
<g>
	<g>
		<path style="fill:#575757;" d="M345.58,213.262c-17.18-35.456-46.501-63.682-82.562-79.477c-7.589-3.324-16.434,0.133-19.758,7.722
			c-3.324,7.588,0.133,16.434,7.722,19.758c29.525,12.932,53.532,36.044,67.6,65.079c3.612,7.455,12.581,10.57,20.04,6.958
			C346.077,229.69,349.192,220.718,345.58,213.262z"/>
	</g>
</g>
<g>
</g>
<g>
</g>
<g>
</g>
<g>
</g>
<g>
</g>
<g>
</g>
<g>
</g>
<g>
</g>
<g>
</g>
<g>
</g>
<g>
</g>
<g>
</g>
<g>
</g>
<g>
</g>
<g>
</g>
</svg>
